REM DIRINDEX 1\2,1\3,1\4,1\5
REM DIRNAME cjc046,folder01,folder02,folder03,folder04
TITLE ""
FILE "127.mp3" MP3
  TRACK 01 AUDIO
    TITLE "0:"
    INDEX 01 00:00:00
  TRACK 02 AUDIO
    TITLE "2:cjc046_3189"
    INDEX 01 00:00:13
  TRACK 03 AUDIO
    TITLE "0:"
    INDEX 01 00:01:40
  TRACK 04 AUDIO
    TITLE "3:cjc046_3190"
    INDEX 01 00:01:62
  TRACK 05 AUDIO
    TITLE "0:"
    INDEX 01 00:02:67
  TRACK 06 AUDIO
    TITLE "4:cjc046_3191"
    INDEX 01 00:03:02
  TRACK 07 AUDIO
    TITLE "0:"
    INDEX 01 00:04:27
  TRACK 08 AUDIO
    TITLE "2:cjc046_3192"
    INDEX 01 00:05:36
  TRACK 09 AUDIO
    TITLE "0:"
    INDEX 01 00:06:43
  TRACK 10 AUDIO
    TITLE "3:cjc046_3193"
    INDEX 01 00:06:59
  TRACK 11 AUDIO
    TITLE "0:"
    INDEX 01 00:07:70
  TRACK 12 AUDIO
    TITLE "4:cjc046_3194"
    INDEX 01 00:08:07
  TRACK 13 AUDIO
    TITLE "0:"
    INDEX 01 00:09:12
  TRACK 14 AUDIO
    TITLE "2:cjc046_3195"
    INDEX 01 00:10:23
  TRACK 15 AUDIO
    TITLE "0:"
    INDEX 01 00:11:27
  TRACK 16 AUDIO
    TITLE "3:cjc046_3196"
    INDEX 01 00:11:44
  TRACK 17 AUDIO
    TITLE "0:"
    INDEX 01 00:13:20
  TRACK 18 AUDIO
    TITLE "4:cjc046_3197"
    INDEX 01 00:13:39
  TRACK 19 AUDIO
    TITLE "0:"
    INDEX 01 00:14:43
  TRACK 20 AUDIO
    TITLE "2:cjc046_3198"
    INDEX 01 00:15:46
  TRACK 21 AUDIO
    TITLE "0:"
    INDEX 01 00:16:48
  TRACK 22 AUDIO
    TITLE "3:cjc046_3199"
    INDEX 01 00:16:69
  TRACK 23 AUDIO
    TITLE "0:"
    INDEX 01 00:18:50
  TRACK 24 AUDIO
    TITLE "4:cjc046_3200"
    INDEX 01 00:18:68
  TRACK 25 AUDIO
    TITLE "0:"
    INDEX 01 00:19:69
  TRACK 26 AUDIO
    TITLE "2:cjc046_3201"
    INDEX 01 00:21:06
  TRACK 27 AUDIO
    TITLE "0:"
    INDEX 01 00:22:03
  TRACK 28 AUDIO
    TITLE "3:cjc046_3202"
    INDEX 01 00:22:21
  TRACK 29 AUDIO
    TITLE "0:"
    INDEX 01 00:23:55
  TRACK 30 AUDIO
    TITLE "4:cjc046_3203"
    INDEX 01 00:23:71
  TRACK 31 AUDIO
    TITLE "0:"
    INDEX 01 00:24:67
  TRACK 32 AUDIO
    TITLE "2:cjc046_3204"
    INDEX 01 00:26:03
  TRACK 33 AUDIO
    TITLE "0:"
    INDEX 01 00:27:08
  TRACK 34 AUDIO
    TITLE "3:cjc046_3205"
    INDEX 01 00:27:28
  TRACK 35 AUDIO
    TITLE "0:"
    INDEX 01 00:28:31
  TRACK 36 AUDIO
    TITLE "4:cjc046_3206"
    INDEX 01 00:28:49
  TRACK 37 AUDIO
    TITLE "0:"
    INDEX 01 00:29:54
  TRACK 38 AUDIO
    TITLE "2:cjc046_3207"
    INDEX 01 00:30:61
  TRACK 39 AUDIO
    TITLE "0:"
    INDEX 01 00:32:00
  TRACK 40 AUDIO
    TITLE "3:cjc046_3208"
    INDEX 01 00:32:19
  TRACK 41 AUDIO
    TITLE "0:"
    INDEX 01 00:33:44
  TRACK 42 AUDIO
    TITLE "4:cjc046_3209"
    INDEX 01 00:33:54
  TRACK 43 AUDIO
    TITLE "0:"
    INDEX 01 00:34:67
  TRACK 44 AUDIO
    TITLE "2:cjc046_3210"
    INDEX 01 00:36:03
  TRACK 45 AUDIO
    TITLE "0:"
    INDEX 01 00:37:01
  TRACK 46 AUDIO
    TITLE "3:cjc046_3211"
    INDEX 01 00:37:22
  TRACK 47 AUDIO
    TITLE "0:"
    INDEX 01 00:38:08
  TRACK 48 AUDIO
    TITLE "4:cjc046_3212"
    INDEX 01 00:38:26
  TRACK 49 AUDIO
    TITLE "0:"
    INDEX 01 00:39:25
  TRACK 50 AUDIO
    TITLE "2:cjc046_3213"
    INDEX 01 00:40:32
  TRACK 51 AUDIO
    TITLE "0:"
    INDEX 01 00:41:40
  TRACK 52 AUDIO
    TITLE "3:cjc046_3214"
    INDEX 01 00:41:53
  TRACK 53 AUDIO
    TITLE "0:"
    INDEX 01 00:42:45
  TRACK 54 AUDIO
    TITLE "4:cjc046_3215"
    INDEX 01 00:42:65
  TRACK 55 AUDIO
    TITLE "0:"
    INDEX 01 00:43:72
  TRACK 56 AUDIO
    TITLE "2:cjc046_3216"
    INDEX 01 00:45:06
  TRACK 57 AUDIO
    TITLE "0:"
    INDEX 01 00:46:17
  TRACK 58 AUDIO
    TITLE "3:cjc046_3217"
    INDEX 01 00:46:37
  TRACK 59 AUDIO
    TITLE "0:"
    INDEX 01 00:47:54
  TRACK 60 AUDIO
    TITLE "4:cjc046_3218"
    INDEX 01 00:47:74
  TRACK 61 AUDIO
    TITLE "0:"
    INDEX 01 00:49:08
  TRACK 62 AUDIO
    TITLE "2:cjc046_3219"
    INDEX 01 00:50:17
  TRACK 63 AUDIO
    TITLE "0:"
    INDEX 01 00:51:38
  TRACK 64 AUDIO
    TITLE "3:cjc046_3220"
    INDEX 01 00:51:63
  TRACK 65 AUDIO
    TITLE "0:"
    INDEX 01 00:53:43
  TRACK 66 AUDIO
    TITLE "4:cjc046_3221"
    INDEX 01 00:53:64
  TRACK 67 AUDIO
    TITLE "0:"
    INDEX 01 00:55:10
  TRACK 68 AUDIO
    TITLE "2:cjc046_3222"
    INDEX 01 00:56:25
  TRACK 69 AUDIO
    TITLE "0:"
    INDEX 01 00:57:46
  TRACK 70 AUDIO
    TITLE "3:cjc046_3223"
    INDEX 01 00:57:60
  TRACK 71 AUDIO
    TITLE "0:"
    INDEX 01 00:59:24
  TRACK 72 AUDIO
    TITLE "4:cjc046_3224"
    INDEX 01 00:59:36
  TRACK 73 AUDIO
    TITLE "0:"
    INDEX 01 01:00:55
  TRACK 74 AUDIO
    TITLE "2:cjc046_3225"
    INDEX 01 01:01:64
  TRACK 75 AUDIO
    TITLE "0:"
    INDEX 01 01:02:73
  TRACK 76 AUDIO
    TITLE "3:cjc046_3226"
    INDEX 01 01:03:14
  TRACK 77 AUDIO
    TITLE "0:"
    INDEX 01 01:04:19
  TRACK 78 AUDIO
    TITLE "4:cjc046_3227"
    INDEX 01 01:04:39
  TRACK 79 AUDIO
    TITLE "0:"
    INDEX 01 01:05:46
  TRACK 80 AUDIO
    TITLE "2:cjc046_3228"
    INDEX 01 01:06:53
  TRACK 81 AUDIO
    TITLE "0:"
    INDEX 01 01:07:74
  TRACK 82 AUDIO
    TITLE "3:cjc046_3229"
    INDEX 01 01:08:21
  TRACK 83 AUDIO
    TITLE "0:"
    INDEX 01 01:09:61
  TRACK 84 AUDIO
    TITLE "4:cjc046_3230"
    INDEX 01 01:10:02
  TRACK 85 AUDIO
    TITLE "0:"
    INDEX 01 01:11:21
